<?xml version="1.0" encoding="UTF-8"?><svg width="16px" height="16px" viewBox="0 0 24 24" stroke-width="1.99" fill="none" xmlns="http://www.w3.org/2000/svg" color="#3c3c3c"><path d="M8.5 4H6a2 2 0 00-2 2v14a2 2 0 002 2h6M15.5 4H18a2 2 0 012 2v9" stroke="#3c3c3c" stroke-width="1.99" stroke-linecap="round"/><path d="M8 6.4V4.5a.5.5 0 01.5-.5c.276 0 .504-.224.552-.496C9.2 2.652 9.774 1 12 1s2.8 1.652 2.948 2.504c.048.272.276.496.552.496a.5.5 0 01.5.5v1.9a.6.6 0 01-.6.6H8.6a.6.6 0 01-.6-.6z" stroke="#3c3c3c" stroke-width="1.99" stroke-linecap="round"/><path d="M15.5 20.5l2 2 5-5" stroke="#3c3c3c" stroke-width="1.99" stroke-linecap="round" stroke-linejoin="round"/></svg>
